<svg width="339" height="48" viewBox="0 0 339 48" fill="none" xmlns="http://www.w3.org/2000/svg">
<path d="M12.2344 8.73438C15.7344 8.73438 18.3438 9.65625 20.0625 11.5C21.7812 13.3281 22.6406 15.9766 22.6406 19.4453C22.6406 21.1641 22.4219 22.7422 21.9844 24.1797C21.5625 25.6016 20.9062 26.8359 20.0156 27.8828C19.1406 28.9297 18.0234 29.7344 16.6641 30.2969C15.3203 30.8594 13.7266 31.1406 11.8828 31.1406H10.1484V43H2.97656V8.73438H12.2344ZM11.625 14.8281H10.1484V25.0469H11.1328C12.0703 25.0469 12.8672 24.8594 13.5234 24.4844C14.1797 24.1094 14.6719 23.5156 15 22.7031C15.3438 21.8906 15.5156 20.8203 15.5156 19.4922C15.5156 17.8828 15.1953 16.7031 14.5547 15.9531C13.9141 15.2031 12.9375 14.8281 11.625 14.8281ZM57.1359 29.7578C57.1359 31.5391 56.9484 33.25 56.5734 34.8906C56.2141 36.5156 55.6281 37.9766 54.8156 39.2734C54.0187 40.5547 52.9641 41.5781 51.6516 42.3438C50.3391 43.0938 48.7219 43.4688 46.8 43.4688C45.0344 43.4688 43.5031 43.1016 42.2062 42.3672C40.925 41.6172 39.8625 40.6094 39.0187 39.3438C38.1906 38.0625 37.5734 36.6016 37.1672 34.9609C36.7609 33.3047 36.5578 31.5703 36.5578 29.7578C36.5578 27.1484 36.9094 24.8203 37.6125 22.7734C38.3312 20.7266 39.4484 19.1172 40.9641 17.9453C42.4953 16.7578 44.4719 16.1641 46.8937 16.1641C48.9719 16.1641 50.7766 16.6953 52.3078 17.7578C53.8391 18.8047 55.0266 20.3359 55.8703 22.3516C56.7141 24.3672 57.1359 26.8359 57.1359 29.7578ZM43.4484 29.8516C43.4484 31.5703 43.5656 33.0234 43.8 34.2109C44.05 35.3828 44.425 36.2656 44.925 36.8594C45.425 37.4531 46.0656 37.75 46.8469 37.75C47.6594 37.75 48.3078 37.4609 48.7922 36.8828C49.2922 36.2891 49.6516 35.3984 49.8703 34.2109C50.0891 33.0078 50.1984 31.5234 50.1984 29.7578C50.1984 27.9922 50.0891 26.5312 49.8703 25.375C49.6516 24.2031 49.2922 23.3281 48.7922 22.75C48.3078 22.1719 47.6594 21.8828 46.8469 21.8828C45.6594 21.8828 44.7922 22.5312 44.2453 23.8281C43.7141 25.125 43.4484 27.1328 43.4484 29.8516ZM84.2016 16.1641C84.5297 16.1641 84.8578 16.1875 85.1859 16.2344C85.5141 16.2656 85.9047 16.3438 86.3578 16.4688L85.7719 23.7578C85.4594 23.6484 85.1156 23.5703 84.7406 23.5234C84.3656 23.4766 83.9516 23.4531 83.4984 23.4531C82.7641 23.4531 82.1156 23.5938 81.5531 23.875C80.9906 24.1562 80.5219 24.5625 80.1469 25.0938C79.7719 25.625 79.4906 26.2734 79.3031 27.0391C79.1312 27.8047 79.0453 28.6719 79.0453 29.6406V43H72.225V16.6328H77.4516L78.4359 20.9219H78.7641C79.0922 20.1406 79.5141 19.3828 80.0297 18.6484C80.5609 17.9141 81.1781 17.3203 81.8812 16.8672C82.5844 16.3984 83.3578 16.1641 84.2016 16.1641ZM109.486 37.5391C109.939 37.5391 110.423 37.4766 110.939 37.3516C111.47 37.2109 112.017 37.0078 112.58 36.7422V42.1797C111.83 42.6016 111.017 42.9219 110.142 43.1406C109.283 43.3594 108.361 43.4688 107.377 43.4688C105.798 43.4688 104.509 43.1562 103.509 42.5312C102.509 41.9062 101.783 40.9531 101.33 39.6719C100.877 38.3906 100.65 36.7812 100.65 34.8438V22.2578H98.025V18.625L101.189 16.8438L102.806 11.1953H107.447V16.6328H112.252V22.2578H107.447V34.6562C107.447 35.625 107.603 36.3516 107.916 36.8359C108.244 37.3047 108.767 37.5391 109.486 37.5391ZM138.661 22.2578H134.419V43H127.598V22.2578H124.598V18.625L127.598 16.6797V16C127.598 13.7344 127.841 11.8906 128.325 10.4688C128.809 9.03125 129.567 7.97656 130.598 7.30469C131.645 6.61719 132.997 6.27344 134.653 6.27344C135.622 6.27344 136.497 6.35938 137.278 6.53125C138.059 6.70312 138.981 6.99219 140.044 7.39844L138.614 12.4844C138.177 12.3438 137.762 12.2344 137.372 12.1562C136.981 12.0625 136.583 12.0156 136.177 12.0156C135.552 12.0156 135.098 12.2812 134.817 12.8125C134.552 13.3281 134.419 14.2188 134.419 15.4844V16.6328H138.661V22.2578ZM172.102 29.7578C172.102 31.5391 171.914 33.25 171.539 34.8906C171.18 36.5156 170.594 37.9766 169.781 39.2734C168.984 40.5547 167.93 41.5781 166.617 42.3438C165.305 43.0938 163.688 43.4688 161.766 43.4688C160 43.4688 158.469 43.1016 157.172 42.3672C155.891 41.6172 154.828 40.6094 153.984 39.3438C153.156 38.0625 152.539 36.6016 152.133 34.9609C151.727 33.3047 151.523 31.5703 151.523 29.7578C151.523 27.1484 151.875 24.8203 152.578 22.7734C153.297 20.7266 154.414 19.1172 155.93 17.9453C157.461 16.7578 159.438 16.1641 161.859 16.1641C163.938 16.1641 165.742 16.6953 167.273 17.7578C168.805 18.8047 169.992 20.3359 170.836 22.3516C171.68 24.3672 172.102 26.8359 172.102 29.7578ZM158.414 29.8516C158.414 31.5703 158.531 33.0234 158.766 34.2109C159.016 35.3828 159.391 36.2656 159.891 36.8594C160.391 37.4531 161.031 37.75 161.812 37.75C162.625 37.75 163.273 37.4609 163.758 36.8828C164.258 36.2891 164.617 35.3984 164.836 34.2109C165.055 33.0078 165.164 31.5234 165.164 29.7578C165.164 27.9922 165.055 26.5312 164.836 25.375C164.617 24.2031 164.258 23.3281 163.758 22.75C163.273 22.1719 162.625 21.8828 161.812 21.8828C160.625 21.8828 159.758 22.5312 159.211 23.8281C158.68 25.125 158.414 27.1328 158.414 29.8516ZM193.964 43H187.144V6.53125H193.964V43ZM216.811 16.6328V43H209.991V16.6328H216.811ZM213.389 6.17969C214.67 6.17969 215.6 6.5 216.178 7.14062C216.772 7.78125 217.069 8.71875 217.069 9.95312C217.069 11.1719 216.756 12.0937 216.131 12.7188C215.522 13.3438 214.608 13.6562 213.389 13.6562C212.202 13.6562 211.288 13.3438 210.647 12.7188C210.022 12.0937 209.709 11.1719 209.709 9.95312C209.709 8.6875 210.006 7.74219 210.6 7.11719C211.194 6.49219 212.123 6.17969 213.389 6.17969ZM252.502 29.7578C252.502 31.5391 252.314 33.25 251.939 34.8906C251.58 36.5156 250.994 37.9766 250.181 39.2734C249.384 40.5547 248.33 41.5781 247.017 42.3438C245.705 43.0938 244.087 43.4688 242.166 43.4688C240.4 43.4688 238.869 43.1016 237.572 42.3672C236.291 41.6172 235.228 40.6094 234.384 39.3438C233.556 38.0625 232.939 36.6016 232.533 34.9609C232.127 33.3047 231.923 31.5703 231.923 29.7578C231.923 27.1484 232.275 24.8203 232.978 22.7734C233.697 20.7266 234.814 19.1172 236.33 17.9453C237.861 16.7578 239.837 16.1641 242.259 16.1641C244.337 16.1641 246.142 16.6953 247.673 17.7578C249.205 18.8047 250.392 20.3359 251.236 22.3516C252.08 24.3672 252.502 26.8359 252.502 29.7578ZM238.814 29.8516C238.814 31.5703 238.931 33.0234 239.166 34.2109C239.416 35.3828 239.791 36.2656 240.291 36.8594C240.791 37.4531 241.431 37.75 242.212 37.75C243.025 37.75 243.673 37.4609 244.158 36.8828C244.658 36.2891 245.017 35.3984 245.236 34.2109C245.455 33.0078 245.564 31.5234 245.564 29.7578C245.564 27.9922 245.455 26.5312 245.236 25.375C245.017 24.2031 244.658 23.3281 244.158 22.75C243.673 22.1719 243.025 21.8828 242.212 21.8828C241.025 21.8828 240.158 22.5312 239.611 23.8281C239.08 25.125 238.814 27.1328 238.814 29.8516Z" fill="white"/>
<mask id="path-2-outside-1_18_5" maskUnits="userSpaceOnUse" x="266" y="3" width="73" height="43" fill="black">
<rect fill="white" x="266" y="3" width="73" height="43"/>
<path d="M305.956 29.7703C305.458 30.2587 304.652 30.2587 304.154 29.7703L294.247 20.0421C293.501 19.3095 292.291 19.3095 291.545 20.0421L288.392 23.1375C287.646 23.8701 287.646 25.058 288.392 25.7906L303.704 40.8252C304.45 41.5578 305.66 41.5578 306.406 40.8252L334.44 13.298C335.187 12.5654 335.187 11.3775 334.44 10.6448L331.288 7.54949C330.542 6.81684 329.332 6.81684 328.586 7.54949L305.956 29.7703Z"/>
<path d="M288.123 30.3957C287.626 30.8841 286.819 30.8841 286.322 30.3957L276.414 20.6675C275.668 19.9348 274.458 19.9348 273.712 20.6675L270.56 23.7628C269.813 24.4955 269.813 25.6834 270.56 26.416L285.871 41.4505C286.617 42.1832 287.827 42.1832 288.573 41.4505L316.608 13.9234C317.354 13.1907 317.354 12.0029 316.608 11.2702L313.455 8.17485C312.709 7.44219 311.499 7.44219 310.753 8.17485L288.123 30.3957Z"/>
</mask>
<path d="M305.956 29.7703C305.458 30.2587 304.652 30.2587 304.154 29.7703L294.247 20.0421C293.501 19.3095 292.291 19.3095 291.545 20.0421L288.392 23.1375C287.646 23.8701 287.646 25.058 288.392 25.7906L303.704 40.8252C304.45 41.5578 305.66 41.5578 306.406 40.8252L334.44 13.298C335.187 12.5654 335.187 11.3775 334.44 10.6448L331.288 7.54949C330.542 6.81684 329.332 6.81684 328.586 7.54949L305.956 29.7703Z" fill="#FF285C"/>
<path d="M288.123 30.3957C287.626 30.8841 286.819 30.8841 286.322 30.3957L276.414 20.6675C275.668 19.9348 274.458 19.9348 273.712 20.6675L270.56 23.7628C269.813 24.4955 269.813 25.6834 270.56 26.416L285.871 41.4505C286.617 42.1832 287.827 42.1832 288.573 41.4505L316.608 13.9234C317.354 13.1907 317.354 12.0029 316.608 11.2702L313.455 8.17485C312.709 7.44219 311.499 7.44219 310.753 8.17485L288.123 30.3957Z" fill="#00FF94"/>
<path d="M334.44 10.6448L337.243 7.79071L337.243 7.79071L334.44 10.6448ZM334.44 13.298L337.243 16.1521L334.44 13.298ZM328.586 7.54949L331.388 10.4036L331.388 10.4036L328.586 7.54949ZM331.288 7.54949L328.485 10.4036L328.485 10.4036L331.288 7.54949ZM288.392 25.7906L291.195 22.9365L291.195 22.9365L288.392 25.7906ZM303.704 40.8252L300.901 43.6793L300.901 43.6793L303.704 40.8252ZM306.406 40.8252L309.208 43.6793L309.208 43.6793L306.406 40.8252ZM304.154 29.7703L301.352 32.6244L304.154 29.7703ZM305.956 29.7703L303.153 26.9162L303.153 26.9162L305.956 29.7703ZM294.247 20.0421L291.444 22.8963L294.247 20.0421ZM316.608 11.2702L319.41 8.41607L319.41 8.41607L316.608 11.2702ZM316.608 13.9234L319.41 16.7775L319.41 16.7775L316.608 13.9234ZM310.753 8.17485L313.556 11.029L313.556 11.029L310.753 8.17485ZM313.455 8.17485L310.653 11.029L310.653 11.029L313.455 8.17485ZM270.56 26.416L273.362 23.5619L273.362 23.5619L270.56 26.416ZM270.56 23.7628L267.757 20.9087L267.757 20.9087L270.56 23.7628ZM285.871 41.4505L283.069 44.3046L283.069 44.3046L285.871 41.4505ZM288.573 41.4505L291.376 44.3046L291.376 44.3046L288.573 41.4505ZM286.322 30.3957L283.519 33.2498L283.519 33.2498L286.322 30.3957ZM288.123 30.3957L290.925 33.2498L288.123 30.3957ZM276.414 20.6675L279.217 17.8133L279.217 17.8133L276.414 20.6675ZM273.712 20.6675L276.515 23.5216L276.515 23.5216L273.712 20.6675ZM291.444 22.8963L301.352 32.6244L306.957 26.9162L297.049 17.188L291.444 22.8963ZM306.506 37.971L291.195 22.9365L285.59 28.6448L300.901 43.6793L306.506 37.971ZM291.195 25.9916L294.347 22.8963L288.742 17.188L285.59 20.2833L291.195 25.9916ZM308.758 32.6244L331.388 10.4036L325.783 4.69536L303.153 26.9162L308.758 32.6244ZM328.485 10.4036L331.638 13.499L337.243 7.79071L334.09 4.69536L328.485 10.4036ZM309.208 43.6793L337.243 16.1521L331.638 10.4439L303.603 37.971L309.208 43.6793ZM331.638 13.499C330.787 12.6638 330.787 11.279 331.638 10.4439L337.243 16.1521C339.586 13.8517 339.586 10.0912 337.243 7.79071L331.638 13.499ZM331.388 10.4036C330.579 11.1988 329.295 11.1988 328.485 10.4036L334.09 4.69536C331.788 2.43488 328.086 2.43488 325.783 4.69536L331.388 10.4036ZM291.195 22.9365C292.045 23.7717 292.045 25.1565 291.195 25.9916L285.59 20.2833C283.247 22.5838 283.247 26.3443 285.59 28.6448L291.195 22.9365ZM300.901 43.6793C303.204 45.9398 306.906 45.9398 309.208 43.6793L303.603 37.971C304.413 37.1759 305.697 37.1759 306.506 37.971L300.901 43.6793ZM301.352 32.6244C303.405 34.6407 306.705 34.6407 308.758 32.6244L303.153 26.9162C304.212 25.8768 305.898 25.8768 306.957 26.9162L301.352 32.6244ZM297.049 17.188C294.747 14.9275 291.044 14.9275 288.742 17.188L294.347 22.8963C293.537 23.6914 292.254 23.6914 291.444 22.8963L297.049 17.188ZM273.612 23.5216L283.519 33.2498L289.124 27.5415L279.217 17.8133L273.612 23.5216ZM288.674 38.5964L273.362 23.5619L267.757 29.2701L283.069 44.3046L288.674 38.5964ZM273.362 26.617L276.515 23.5216L270.91 17.8133L267.757 20.9087L273.362 26.617ZM290.925 33.2498L313.556 11.029L307.951 5.32072L285.32 27.5415L290.925 33.2498ZM310.653 11.029L313.805 14.1243L319.41 8.41607L316.258 5.32071L310.653 11.029ZM291.376 44.3046L319.41 16.7775L313.805 11.0692L285.771 38.5964L291.376 44.3046ZM313.805 14.1243C312.955 13.2892 312.955 11.9044 313.805 11.0692L319.41 16.7775C321.753 14.4771 321.753 10.7165 319.41 8.41607L313.805 14.1243ZM313.556 11.029C312.746 11.8241 311.463 11.8242 310.653 11.029L316.258 5.32071C313.956 3.06024 310.253 3.06024 307.951 5.32072L313.556 11.029ZM273.362 23.5619C274.213 24.397 274.213 25.7818 273.362 26.617L267.757 20.9087C265.414 23.2091 265.414 26.9697 267.757 29.2701L273.362 23.5619ZM283.069 44.3046C285.371 46.5651 289.074 46.5651 291.376 44.3046L285.771 38.5964C286.581 37.8012 287.864 37.8012 288.674 38.5964L283.069 44.3046ZM283.519 33.2498C285.573 35.2661 288.872 35.266 290.925 33.2498L285.32 27.5415C286.379 26.5021 288.066 26.5021 289.124 27.5415L283.519 33.2498ZM279.217 17.8133C276.914 15.5529 273.212 15.5529 270.91 17.8133L276.515 23.5216C275.705 24.3168 274.421 24.3168 273.612 23.5216L279.217 17.8133Z" fill="white" mask="url(#path-2-outside-1_18_5)"/>
</svg>
