<svg width="767" height="767" viewBox="0 0 767 767" fill="none" xmlns="http://www.w3.org/2000/svg">
<g clip-path="url(#clip0_3_52)">
<rect width="766.45" height="766.45" fill="white"/>
<path d="M765.025 0H1.42647C0.638653 0 0 8.50028 0 18.9859V747.466C0 757.951 0.638653 766.452 1.42647 766.452H765.025C765.813 766.452 766.452 757.951 766.452 747.466V18.9859C766.452 8.50028 765.813 0 765.025 0Z" fill="#35A1FF"/>
<path d="M280.974 95.7946H73.3822C57.5664 95.7946 44.7451 108.616 44.7451 124.432V132.948C44.7451 148.764 57.5664 161.585 73.3822 161.585H280.974C296.79 161.585 309.611 148.764 309.611 132.948V124.432C309.611 108.616 296.79 95.7946 280.974 95.7946Z" fill="white"/>
<path d="M186.667 92.8376C186.667 59.2872 159.469 32.0893 125.919 32.0893C92.3682 32.0893 65.1703 59.2872 65.1703 92.8376V95.4044C65.1703 128.955 92.3682 156.153 125.919 156.153C159.469 156.153 186.667 128.955 186.667 95.4044V92.8376Z" fill="white"/>
<path d="M706.781 163.214H499.189C483.373 163.214 470.552 176.035 470.552 191.851V200.367C470.552 216.183 483.373 229.004 499.189 229.004H706.781C722.597 229.004 735.418 216.183 735.418 200.367V191.851C735.418 176.035 722.597 163.214 706.781 163.214Z" fill="white"/>
<path d="M612.473 160.257C612.473 126.707 585.275 99.5087 551.725 99.5087C518.175 99.5087 490.977 126.707 490.977 160.257V162.824C490.977 196.374 518.175 223.572 551.725 223.572C585.275 223.572 612.473 196.374 612.473 162.824V160.257Z" fill="white"/>
<path d="M373.858 588.589C433.424 588.589 481.712 540.302 481.712 480.736C481.712 421.17 433.424 372.882 373.858 372.882C314.292 372.882 266.004 421.17 266.004 480.736C266.004 540.302 314.292 588.589 373.858 588.589Z" fill="#FFD22D"/>
<path d="M373.858 325.207V230.641" stroke="#FFD22D" stroke-width="26.2796" stroke-linecap="round"/>
<path d="M529.405 480.754H623.97" stroke="#FFD22D" stroke-width="26.2796" stroke-linecap="round"/>
<path d="M218.312 480.754H123.746" stroke="#FFD22D" stroke-width="26.2796" stroke-linecap="round"/>
<path d="M373.858 636.3V730.866" stroke="#FFD22D" stroke-width="22.5253" stroke-linecap="round"/>
<path d="M483.846 370.766L550.714 303.898" stroke="#FFD22D" stroke-width="26.2796" stroke-linecap="round"/>
<path d="M483.846 590.741L550.714 657.61" stroke="#FFD22D" stroke-width="22.5253" stroke-linecap="round"/>
<path d="M263.87 370.766L197.002 303.897" stroke="#FFD22D" stroke-width="26.2796" stroke-linecap="round"/>
<path d="M263.87 590.741L197.002 657.609" stroke="#FFD22D" stroke-width="22.5253" stroke-linecap="round"/>
<path d="M766.452 505.858H0V766.452H766.452V505.858Z" fill="#004CE7"/>
<path d="M179.566 543.797H57.1469C48.9814 543.797 42.3619 550.416 42.3619 558.582C42.3619 566.747 48.9814 573.367 57.1469 573.367H179.566C187.732 573.367 194.351 566.747 194.351 558.582C194.351 550.416 187.732 543.797 179.566 543.797Z" fill="#0C5BFF"/>
<path d="M696.294 543.797H283.794C275.628 543.797 269.009 550.416 269.009 558.582C269.009 566.747 275.628 573.367 283.794 573.367H696.294C704.459 573.367 711.079 566.747 711.079 558.582C711.079 550.416 704.459 543.797 696.294 543.797Z" fill="#0C5BFF"/>
<path d="M569.143 599.98H156.643C148.478 599.98 141.858 606.599 141.858 614.765C141.858 622.93 148.478 629.55 156.643 629.55H569.143C577.309 629.55 583.928 622.93 583.928 614.765C583.928 606.599 577.309 599.98 569.143 599.98Z" fill="#0C5BFF"/>
<path d="M104.896 676.862H50.1917C42.0262 676.862 35.4067 683.481 35.4067 691.646C35.4067 699.812 42.0262 706.431 50.1917 706.431H104.896C113.061 706.431 119.681 699.812 119.681 691.646C119.681 683.481 113.061 676.862 104.896 676.862Z" fill="#0C5BFF"/>
<path d="M430.165 676.862H180.299C172.134 676.862 165.514 683.481 165.514 691.646C165.514 699.812 172.134 706.431 180.299 706.431H430.165C438.33 706.431 444.95 699.812 444.95 691.646C444.95 683.481 438.33 676.862 430.165 676.862Z" fill="#0C5BFF"/>
<path d="M751.667 676.861H504.09C495.924 676.861 489.305 683.481 489.305 691.646C489.305 699.812 495.924 706.431 504.09 706.431H751.667C759.832 706.431 766.452 699.812 766.452 691.646C766.452 683.481 759.832 676.861 751.667 676.861Z" fill="#0C5BFF"/>
</g>
<defs>
<clipPath id="clip0_3_52">
<rect width="766.45" height="766.45" fill="white"/>
</clipPath>
</defs>
</svg>
