<svg width="200" height="200" viewBox="0 0 200 200" fill="none" xmlns="http://www.w3.org/2000/svg">
<path fill-rule="evenodd" clip-rule="evenodd" d="M100.5 36C110.165 36 118 43.835 118 53.5V56.8333C118 66.4983 110.165 74.3333 100.5 74.3333C90.835 74.3333 83 66.4983 83 56.8333V53.5C83 43.835 90.835 36 100.5 36ZM100.5 82.6667C110.165 82.6667 118 90.5017 118 100.167V146.833C118 156.498 110.165 164.333 100.5 164.333C90.835 164.333 83 156.498 83 146.833V100.167C83 90.5017 90.835 82.6667 100.5 82.6667Z" fill="white" fill-opacity="0.01"/>
<path fill-rule="evenodd" clip-rule="evenodd" d="M0 0H200V200H0V0ZM100.5 36C110.165 36 118 43.835 118 53.5V56.8333C118 66.4983 110.165 74.3333 100.5 74.3333C90.835 74.3333 83 66.4983 83 56.8333V53.5C83 43.835 90.835 36 100.5 36ZM100.5 82.6667C110.165 82.6667 118 90.5017 118 100.167V146.833C118 156.498 110.165 164.333 100.5 164.333C90.835 164.333 83 156.498 83 146.833V100.167C83 90.5017 90.835 82.6667 100.5 82.6667Z" fill="#34FF85"/>
</svg>
