<svg width="200" height="200" viewBox="0 0 200 200" fill="none" xmlns="http://www.w3.org/2000/svg">
<path d="M0 0H130C168.66 0 200 31.3401 200 70V130C200 168.66 168.66 200 130 200H0V0Z" fill="#2958FF"/>
<path fill-rule="evenodd" clip-rule="evenodd" d="M166.044 55.9694C172.652 62.5953 172.652 73.3379 166.044 79.9638L101.15 145.031C94.5414 151.656 83.8272 151.656 77.219 145.031L33.9562 101.653C27.3479 95.0268 27.3479 84.2842 33.9562 77.6583C40.5645 71.0325 51.2786 71.0325 57.8869 77.6583L89.1843 109.039L142.113 55.9694C148.721 49.3435 159.436 49.3435 166.044 55.9694Z" fill="#F2F2F2"/>
</svg>
