<svg width="200" height="200" viewBox="0 0 200 200" fill="none" xmlns="http://www.w3.org/2000/svg">
<path fill-rule="evenodd" clip-rule="evenodd" d="M0 0H200V200H0V0ZM126.864 55V56.1309H140.818C144.408 56.1309 147.318 59.041 147.318 62.6309C147.318 66.2207 144.408 69.1309 140.818 69.1309H59C55.4101 69.1309 52.5 66.2207 52.5 62.6309C52.5 59.041 55.4101 56.1309 59 56.1309H72.9545V55C72.9545 45.8873 80.3418 38.5 89.4545 38.5H110.364C119.476 38.5 126.864 45.8873 126.864 55ZM63.4832 73.7617C67.073 73.7617 69.9832 76.6719 69.9832 80.2617V134.091C69.9832 141.547 76.0273 147.591 83.4832 147.591H116.335C123.791 147.591 129.835 141.547 129.835 134.091V80.2617C129.835 76.6719 132.745 73.7617 136.335 73.7617C139.925 73.7617 142.835 76.6719 142.835 80.2617V134.091C142.835 148.726 130.971 160.591 116.335 160.591H83.4832C68.8476 160.591 56.9832 148.726 56.9832 134.091V80.2617C56.9832 76.6719 59.8933 73.7617 63.4832 73.7617ZM89.2615 85.8829C92.8514 85.8829 95.7615 88.7931 95.7615 92.3829V123.237C95.7615 126.827 92.8514 129.737 89.2615 129.737C85.6717 129.737 82.7615 126.827 82.7615 123.237V92.3829C82.7615 88.7931 85.6717 85.8829 89.2615 85.8829ZM111.677 85.8829C115.267 85.8829 118.177 88.7931 118.177 92.3829V123.237C118.177 126.827 115.267 129.737 111.677 129.737C108.088 129.737 105.177 126.827 105.177 123.237V92.3829C105.177 88.7931 108.088 85.8829 111.677 85.8829Z" fill="#F85353"/>
<path d="M85.9545 55C85.9545 53.067 87.5215 51.5 89.4545 51.5H110.364C112.297 51.5 113.864 53.067 113.864 55V56.1309H85.9545V55Z" fill="#F85353"/>
</svg>
